<svg width="58" height="37" viewBox="0 0 58 37" fill="none" xmlns="http://www.w3.org/2000/svg">
<path d="M7.17188 4.64062C7.04688 4.64062 6.9375 4.60938 6.84375 4.54688C6.78125 4.48438 6.6875 4.4375 6.5625 4.40625C6.53125 4.28125 6.48438 4.15625 6.42188 4.03125C6.39062 3.90625 6.4375 3.78125 6.5625 3.65625C6.46875 3.53125 6.39062 3.45312 6.32812 3.42188C6.26562 3.39062 6.23438 3.29688 6.23438 3.14062C6.23438 2.82812 6.35938 2.65625 6.60938 2.625C6.85938 2.59375 7.01562 2.45312 7.07812 2.20312C7.20312 2.17188 7.35938 2.15625 7.54688 2.15625C7.73438 2.15625 7.89062 2.125 8.01562 2.0625C8.57812 1.84375 8.92188 1.73438 9.04688 1.73438C9.17188 1.70312 9.28125 1.70312 9.375 1.73438C9.46875 1.73438 9.5625 1.76562 9.65625 1.82812C9.78125 1.85938 9.95312 1.875 10.1719 1.875C10.5781 1.875 10.9688 1.84375 11.3438 1.78125C11.7188 1.6875 12.0938 1.64062 12.4688 1.64062C12.6562 1.64062 12.8281 1.67188 12.9844 1.73438C13.1719 1.76562 13.3438 1.78125 13.5 1.78125C13.8438 1.78125 14.1719 1.71875 14.4844 1.59375C14.7969 1.4375 15.125 1.35938 15.4688 1.35938C15.7188 1.35938 15.9062 1.39062 16.0312 1.45312C16.1562 1.51562 16.3438 1.42188 16.5938 1.17188C16.8125 1.20312 17.0469 1.29688 17.2969 1.45312C17.5469 1.57812 17.75 1.5 17.9062 1.21875C18.125 1.375 18.4219 1.51562 18.7969 1.64062C19.2031 1.73438 19.5469 1.78125 19.8281 1.78125C20.0781 2 20.3594 2.09375 20.6719 2.0625C21.0156 2 21.25 1.96875 21.375 1.96875C21.5312 1.96875 21.6719 2 21.7969 2.0625C21.9531 2.125 22.1094 2.15625 22.2656 2.15625C22.4219 2.15625 22.5625 2.0625 22.6875 1.875C22.8125 1.65625 22.9844 1.54688 23.2031 1.54688C23.5781 1.70312 23.7969 1.75 23.8594 1.6875C23.9219 1.59375 24.0469 1.5625 24.2344 1.59375C24.4219 1.78125 24.625 1.875 24.8438 1.875C25.0625 1.84375 25.2969 1.84375 25.5469 1.875C25.6094 1.8125 25.6406 1.73438 25.6406 1.64062C25.6719 1.54688 25.6875 1.45312 25.6875 1.35938C26 1.35938 26.25 1.21875 26.4375 0.9375C26.625 1 26.75 1.09375 26.8125 1.21875C26.875 1.3125 26.9375 1.4375 27 1.59375C27.4062 1.625 27.7656 1.65625 28.0781 1.6875C28.3906 1.6875 28.7656 1.64062 29.2031 1.54688C29.3281 1.76562 29.4844 1.92188 29.6719 2.01562C29.8594 2.10938 30.0156 2.26562 30.1406 2.48438C30.0781 2.64062 30.0469 2.78125 30.0469 2.90625C30.0781 3.03125 30.0625 3.17188 30 3.32812C29.875 3.32812 29.7812 3.375 29.7188 3.46875C29.6562 3.53125 29.5469 3.5625 29.3906 3.5625C29.4531 3.78125 29.4531 3.96875 29.3906 4.125C29.3594 4.28125 29.2969 4.4375 29.2031 4.59375C29.1094 4.71875 29.0156 4.85938 28.9219 5.01562C28.8281 5.17188 28.7656 5.34375 28.7344 5.53125C28.3906 5.65625 28.0781 5.70312 27.7969 5.67188C27.5156 5.64062 27.2031 5.625 26.8594 5.625C26.5156 5.625 26.1719 5.65625 25.8281 5.71875C25.4844 5.75 25.1406 5.76562 24.7969 5.76562C24.5469 5.76562 24.3125 5.73438 24.0938 5.67188C23.875 5.57812 23.6562 5.53125 23.4375 5.53125C23.25 5.53125 23.1094 5.60938 23.0156 5.76562C22.7969 5.64062 22.5938 5.54688 22.4062 5.48438C22.25 5.42188 22.0469 5.45312 21.7969 5.57812C21.7656 5.45312 21.6875 5.35938 21.5625 5.29688C21.4375 5.23438 21.2969 5.21875 21.1406 5.25C21.0156 5.25 20.8906 5.29688 20.7656 5.39062C20.6719 5.48438 20.625 5.60938 20.625 5.76562C20.625 5.92188 20.6562 6.07812 20.7188 6.23438C20.7812 6.39062 20.8125 6.5625 20.8125 6.75C20.8125 6.875 20.7656 6.98438 20.6719 7.07812C20.6094 7.17188 20.5781 7.29688 20.5781 7.45312C20.5781 7.64062 20.6094 7.84375 20.6719 8.0625C20.7344 8.28125 20.6719 8.46875 20.4844 8.625C20.5156 8.96875 20.5781 9.29688 20.6719 9.60938C20.7656 9.89062 20.8281 10.2031 20.8594 10.5469C20.9219 11.0781 20.9375 11.625 20.9062 12.1875C20.9062 12.7188 20.9375 13.25 21 13.7812C21.0312 13.9688 21.0625 14.1562 21.0938 14.3438C21.1562 14.5312 21.1875 14.7344 21.1875 14.9531C21.1875 15.1094 21.1562 15.25 21.0938 15.375C21.0312 15.5 21 15.6406 21 15.7969C21 15.9844 21.0469 16.1406 21.1406 16.2656C21.2656 16.3906 21.3438 16.5312 21.375 16.6875C21.4375 17.125 21.4531 17.5625 21.4219 18C21.3906 18.4062 21.4844 18.8125 21.7031 19.2188C21.6406 19.4688 21.6094 19.6562 21.6094 19.7812C21.6406 19.9062 21.75 20.0625 21.9375 20.25C21.8438 20.5625 21.8125 20.7656 21.8438 20.8594C21.875 20.9531 21.8906 21.0469 21.8906 21.1406C21.8906 21.2656 21.875 21.3906 21.8438 21.5156C21.8125 21.6094 21.7969 21.7188 21.7969 21.8438C21.7969 21.9375 21.8125 22.0312 21.8438 22.125C21.875 22.1875 21.8906 22.25 21.8906 22.3125C21.8906 22.6562 21.8125 22.9375 21.6562 23.1562C21.5312 23.375 21.5469 23.7188 21.7031 24.1875C21.6719 24.3438 21.625 24.4688 21.5625 24.5625C21.5 24.625 21.4375 24.7344 21.375 24.8906C21.4375 25.1719 21.4375 25.4219 21.375 25.6406C21.3438 25.8594 21.4531 26.0625 21.7031 26.25C21.6406 26.5625 21.5625 26.875 21.4688 27.1875C21.375 27.5 21.25 27.7812 21.0938 28.0312C21.0625 28.125 21.0781 28.2344 21.1406 28.3594C21.2344 28.4844 21.2812 28.625 21.2812 28.7812C21.2812 28.9062 21.25 29 21.1875 29.0625C21.125 29.125 21.0625 29.2031 21 29.2969C21 29.7656 20.9375 30.0312 20.8125 30.0938C20.6875 30.125 20.7031 30.3125 20.8594 30.6562C20.4219 30.875 20.1875 31.0625 20.1562 31.2188C20.1562 31.375 20.0625 31.4844 19.875 31.5469C19.8438 31.6719 19.8281 31.7969 19.8281 31.9219C19.8281 32.0156 19.7969 32.125 19.7344 32.25C19.4531 32.375 19.25 32.5625 19.125 32.8125C19 33.0625 18.8594 33.3125 18.7031 33.5625C18.5781 33.5625 18.4844 33.5938 18.4219 33.6562C18.3594 33.7188 18.2656 33.7344 18.1406 33.7031C18.1719 33.9844 18.0938 34.1562 17.9062 34.2188C17.75 34.2812 17.5625 34.3906 17.3438 34.5469C17.2812 34.7031 17.1719 34.7812 17.0156 34.7812C16.8594 34.75 16.8125 34.8438 16.875 35.0625C16.75 35.0938 16.6406 35.1094 16.5469 35.1094C16.4844 35.1094 16.4062 35.0625 16.3125 34.9688C16.125 35.0938 16 35.2969 15.9375 35.5781C15.625 35.6406 15.3594 35.7656 15.1406 35.9531C14.9219 36.1094 14.625 36.2188 14.25 36.2812C14.1875 36.3125 14.125 36.375 14.0625 36.4688C14 36.5938 13.8906 36.6719 13.7344 36.7031C13.2969 36.7969 12.8594 36.8281 12.4219 36.7969C11.9844 36.7656 11.5469 36.75 11.1094 36.75C10.8594 36.75 10.6094 36.75 10.3594 36.75C10.1094 36.75 9.85938 36.7656 9.60938 36.7969C9.48438 36.8281 9.375 36.8438 9.28125 36.8438C9.1875 36.875 9.09375 36.8906 9 36.8906C8.6875 36.8906 8.42188 36.8125 8.20312 36.6562C7.98438 36.5312 7.71875 36.5781 7.40625 36.7969C7.1875 36.8281 7.0625 36.7969 7.03125 36.7031C7 36.6406 6.95312 36.5781 6.89062 36.5156C6.73438 36.5469 6.625 36.5469 6.5625 36.5156C6.5 36.5156 6.40625 36.4844 6.28125 36.4219C6.09375 36.3594 5.90625 36.3438 5.71875 36.375C5.5625 36.4375 5.34375 36.4219 5.0625 36.3281C4.9375 36.3281 4.75 36.3594 4.5 36.4219C4.125 36.2344 3.92188 36.0938 3.89062 36C3.85938 35.9062 3.76562 35.8125 3.60938 35.7188C3.20312 35.7812 2.92188 35.7188 2.76562 35.5312C2.60938 35.3438 2.35938 35.2188 2.01562 35.1562C1.95312 34.8125 1.79688 34.5625 1.54688 34.4062C1.29688 34.25 1.07812 34.0469 0.890625 33.7969C0.921875 33.4844 0.90625 33.25 0.84375 33.0938C0.78125 32.9062 0.734375 32.7344 0.703125 32.5781C0.671875 32.3594 0.671875 32.1562 0.703125 31.9688C0.703125 31.7812 0.671875 31.5781 0.609375 31.3594C0.640625 31.2344 0.75 31.0156 0.9375 30.7031C1.09375 30.3906 1.20312 30.1875 1.26562 30.0938C1.51562 30.1562 1.70312 30.1562 1.82812 30.0938C1.92188 30.0312 2.0625 29.9219 2.25 29.7656C2.59375 29.9844 2.95312 30.1406 3.32812 30.2344C3.73438 30.3281 4.10938 30.4688 4.45312 30.6562C4.45312 30.875 4.48438 31.0625 4.54688 31.2188C4.64062 31.375 4.6875 31.5625 4.6875 31.7812C4.84375 31.875 4.95312 32 5.01562 32.1562C5.10938 32.2812 5.23438 32.375 5.39062 32.4375C5.51562 32.5 5.65625 32.5312 5.8125 32.5312C5.96875 32.5 6.10938 32.5 6.23438 32.5312C6.60938 32.75 7.09375 32.9062 7.6875 33C8.28125 33.0938 8.71875 33.1406 9 33.1406C9.125 33.1406 9.21875 33.1094 9.28125 33.0469C9.375 32.9531 9.5 32.9375 9.65625 33C9.8125 32.8125 10.0781 32.6875 10.4531 32.625C10.5469 32.7188 10.6719 32.8125 10.8281 32.9062C11.0156 33 11.2188 33.0625 11.4375 33.0938C11.6562 33.125 11.8594 33.125 12.0469 33.0938C12.2344 33.0625 12.375 33 12.4688 32.9062C12.8125 32.625 13.0312 32.4375 13.125 32.3438C13.2188 32.2188 13.3438 32.2812 13.5 32.5312C13.5625 32.4375 13.6406 32.3906 13.7344 32.3906C13.8594 32.3594 13.9688 32.3281 14.0625 32.2969C14.25 32.2344 14.4062 32.1562 14.5312 32.0625C14.6875 31.9375 14.8594 31.8594 15.0469 31.8281C15.2031 31.4844 15.4219 31.2344 15.7031 31.0781C15.7344 30.8281 15.7812 30.6562 15.8438 30.5625C15.9375 30.4375 15.9531 30.2344 15.8906 29.9531C16.0781 29.8906 16.2031 29.8125 16.2656 29.7188C16.3281 29.625 16.4375 29.5312 16.5938 29.4375V28.7812C16.9375 28.4062 17.0938 28.0938 17.0625 27.8438C17.0312 27.5938 17.1094 27.3906 17.2969 27.2344C17.2656 27.0156 17.2812 26.8125 17.3438 26.625C17.4062 26.4375 17.4375 26.2344 17.4375 26.0156C17.4375 25.8594 17.4062 25.7188 17.3438 25.5938C17.3125 25.4688 17.2969 25.3281 17.2969 25.1719C17.2969 25.0469 17.3594 24.8906 17.4844 24.7031C17.3594 24.4844 17.2812 24.1875 17.25 23.8125C17.2188 23.4375 17.2812 23.1406 17.4375 22.9219C17.4375 22.8281 17.4062 22.75 17.3438 22.6875C17.3125 22.5938 17.2969 22.4844 17.2969 22.3594C17.2969 22.2031 17.3438 22.0625 17.4375 21.9375C17.5625 21.7812 17.625 21.6562 17.625 21.5625C17.625 21.25 17.6094 20.875 17.5781 20.4375C17.5781 19.9688 17.4844 19.6094 17.2969 19.3594C17.3594 18.6094 17.3281 17.875 17.2031 17.1562C17.1094 16.4062 17.0625 15.6562 17.0625 14.9062C17.0625 14.7812 17.0625 14.6719 17.0625 14.5781C17.0938 14.4531 17.1094 14.3281 17.1094 14.2031C17.1094 14.1094 17.0625 14.0156 16.9688 13.9219C16.9062 13.8281 16.8594 13.7188 16.8281 13.5938C16.8594 13.4688 16.875 13.3594 16.875 13.2656C16.9062 13.1719 16.9219 13.0625 16.9219 12.9375C16.9219 12.6875 16.8906 12.4531 16.8281 12.2344C16.7969 11.9844 16.7656 11.7344 16.7344 11.4844C16.6719 11.0156 16.6406 10.5469 16.6406 10.0781C16.6406 9.60938 16.5938 9.14062 16.5 8.67188C16.5 8.57812 16.4531 8.51562 16.3594 8.48438C16.2656 8.42188 16.1875 8.35938 16.125 8.29688C16.125 8.14062 16.1562 8.01562 16.2188 7.92188C16.2812 7.79688 16.3125 7.65625 16.3125 7.5C16.3125 7.4375 16.2812 7.35938 16.2188 7.26562C16.1875 7.17188 16.1406 7.09375 16.0781 7.03125C16.2656 6.75 16.2969 6.46875 16.1719 6.1875C16.0469 5.90625 16.0156 5.625 16.0781 5.34375C15.9531 5.21875 15.7812 5.09375 15.5625 4.96875C15.3438 4.8125 15.1406 4.73438 14.9531 4.73438C14.7969 4.73438 14.6875 4.79688 14.625 4.92188C14.5625 5.01562 14.5 5.09375 14.4375 5.15625C14.1562 4.96875 13.8906 4.96875 13.6406 5.15625C13.4219 5.3125 13.1719 5.34375 12.8906 5.25C12.6094 5.34375 12.4062 5.4375 12.2812 5.53125C12.1875 5.59375 12.0625 5.54688 11.9062 5.39062C11.0625 5.48438 10.3438 5.53125 9.75 5.53125C9.15625 5.5 8.54688 5.46875 7.92188 5.4375C7.79688 5.28125 7.65625 5.15625 7.5 5.0625C7.34375 4.96875 7.23438 4.82812 7.17188 4.64062ZM34.3331 4.64062C34.2081 4.64062 34.0988 4.60938 34.005 4.54688C33.9425 4.48438 33.8488 4.4375 33.7238 4.40625C33.6925 4.28125 33.6456 4.15625 33.5831 4.03125C33.5519 3.90625 33.5988 3.78125 33.7238 3.65625C33.63 3.53125 33.5519 3.45312 33.4894 3.42188C33.4269 3.39062 33.3956 3.29688 33.3956 3.14062C33.3956 2.82812 33.5206 2.65625 33.7706 2.625C34.0206 2.59375 34.1769 2.45312 34.2394 2.20312C34.3644 2.17188 34.5206 2.15625 34.7081 2.15625C34.8956 2.15625 35.0519 2.125 35.1769 2.0625C35.7394 1.84375 36.0831 1.73438 36.2081 1.73438C36.3331 1.70312 36.4425 1.70312 36.5363 1.73438C36.63 1.73438 36.7238 1.76562 36.8175 1.82812C36.9425 1.85938 37.1144 1.875 37.3331 1.875C37.7394 1.875 38.13 1.84375 38.505 1.78125C38.88 1.6875 39.255 1.64062 39.63 1.64062C39.8175 1.64062 39.9894 1.67188 40.1456 1.73438C40.3331 1.76562 40.505 1.78125 40.6613 1.78125C41.005 1.78125 41.3331 1.71875 41.6456 1.59375C41.9581 1.4375 42.2863 1.35938 42.63 1.35938C42.88 1.35938 43.0675 1.39062 43.1925 1.45312C43.3175 1.51562 43.505 1.42188 43.755 1.17188C43.9738 1.20312 44.2081 1.29688 44.4581 1.45312C44.7081 1.57812 44.9113 1.5 45.0675 1.21875C45.2863 1.375 45.5831 1.51562 45.9581 1.64062C46.3644 1.73438 46.7081 1.78125 46.9894 1.78125C47.2394 2 47.5206 2.09375 47.8331 2.0625C48.1769 2 48.4113 1.96875 48.5363 1.96875C48.6925 1.96875 48.8331 2 48.9581 2.0625C49.1144 2.125 49.2706 2.15625 49.4269 2.15625C49.5831 2.15625 49.7238 2.0625 49.8488 1.875C49.9738 1.65625 50.1456 1.54688 50.3644 1.54688C50.7394 1.70312 50.9581 1.75 51.0206 1.6875C51.0831 1.59375 51.2081 1.5625 51.3956 1.59375C51.5831 1.78125 51.7863 1.875 52.005 1.875C52.2238 1.84375 52.4581 1.84375 52.7081 1.875C52.7706 1.8125 52.8019 1.73438 52.8019 1.64062C52.8331 1.54688 52.8488 1.45312 52.8488 1.35938C53.1613 1.35938 53.4113 1.21875 53.5988 0.9375C53.7863 1 53.9113 1.09375 53.9738 1.21875C54.0363 1.3125 54.0988 1.4375 54.1613 1.59375C54.5675 1.625 54.9269 1.65625 55.2394 1.6875C55.5519 1.6875 55.9269 1.64062 56.3644 1.54688C56.4894 1.76562 56.6456 1.92188 56.8331 2.01562C57.0206 2.10938 57.1769 2.26562 57.3019 2.48438C57.2394 2.64062 57.2081 2.78125 57.2081 2.90625C57.2394 3.03125 57.2238 3.17188 57.1613 3.32812C57.0363 3.32812 56.9425 3.375 56.88 3.46875C56.8175 3.53125 56.7081 3.5625 56.5519 3.5625C56.6144 3.78125 56.6144 3.96875 56.5519 4.125C56.5206 4.28125 56.4581 4.4375 56.3644 4.59375C56.2706 4.71875 56.1769 4.85938 56.0831 5.01562C55.9894 5.17188 55.9269 5.34375 55.8956 5.53125C55.5519 5.65625 55.2394 5.70312 54.9581 5.67188C54.6769 5.64062 54.3644 5.625 54.0206 5.625C53.6769 5.625 53.3331 5.65625 52.9894 5.71875C52.6456 5.75 52.3019 5.76562 51.9581 5.76562C51.7081 5.76562 51.4738 5.73438 51.255 5.67188C51.0363 5.57812 50.8175 5.53125 50.5988 5.53125C50.4113 5.53125 50.2706 5.60938 50.1769 5.76562C49.9581 5.64062 49.755 5.54688 49.5675 5.48438C49.4113 5.42188 49.2081 5.45312 48.9581 5.57812C48.9269 5.45312 48.8488 5.35938 48.7238 5.29688C48.5988 5.23438 48.4581 5.21875 48.3019 5.25C48.1769 5.25 48.0519 5.29688 47.9269 5.39062C47.8331 5.48438 47.7863 5.60938 47.7863 5.76562C47.7863 5.92188 47.8175 6.07812 47.88 6.23438C47.9425 6.39062 47.9738 6.5625 47.9738 6.75C47.9738 6.875 47.9269 6.98438 47.8331 7.07812C47.7706 7.17188 47.7394 7.29688 47.7394 7.45312C47.7394 7.64062 47.7706 7.84375 47.8331 8.0625C47.8956 8.28125 47.8331 8.46875 47.6456 8.625C47.6769 8.96875 47.7394 9.29688 47.8331 9.60938C47.9269 9.89062 47.9894 10.2031 48.0206 10.5469C48.0831 11.0781 48.0988 11.625 48.0675 12.1875C48.0675 12.7188 48.0988 13.25 48.1613 13.7812C48.1925 13.9688 48.2238 14.1562 48.255 14.3438C48.3175 14.5312 48.3488 14.7344 48.3488 14.9531C48.3488 15.1094 48.3175 15.25 48.255 15.375C48.1925 15.5 48.1613 15.6406 48.1613 15.7969C48.1613 15.9844 48.2081 16.1406 48.3019 16.2656C48.4269 16.3906 48.505 16.5312 48.5363 16.6875C48.5988 17.125 48.6144 17.5625 48.5831 18C48.5519 18.4062 48.6456 18.8125 48.8644 19.2188C48.8019 19.4688 48.7706 19.6562 48.7706 19.7812C48.8019 19.9062 48.9113 20.0625 49.0988 20.25C49.005 20.5625 48.9738 20.7656 49.005 20.8594C49.0363 20.9531 49.0519 21.0469 49.0519 21.1406C49.0519 21.2656 49.0363 21.3906 49.005 21.5156C48.9738 21.6094 48.9581 21.7188 48.9581 21.8438C48.9581 21.9375 48.9738 22.0312 49.005 22.125C49.0363 22.1875 49.0519 22.25 49.0519 22.3125C49.0519 22.6562 48.9738 22.9375 48.8175 23.1562C48.6925 23.375 48.7081 23.7188 48.8644 24.1875C48.8331 24.3438 48.7863 24.4688 48.7238 24.5625C48.6613 24.625 48.5988 24.7344 48.5363 24.8906C48.5988 25.1719 48.5988 25.4219 48.5363 25.6406C48.505 25.8594 48.6144 26.0625 48.8644 26.25C48.8019 26.5625 48.7238 26.875 48.63 27.1875C48.5363 27.5 48.4113 27.7812 48.255 28.0312C48.2238 28.125 48.2394 28.2344 48.3019 28.3594C48.3956 28.4844 48.4425 28.625 48.4425 28.7812C48.4425 28.9062 48.4113 29 48.3488 29.0625C48.2863 29.125 48.2238 29.2031 48.1613 29.2969C48.1613 29.7656 48.0988 30.0312 47.9738 30.0938C47.8488 30.125 47.8644 30.3125 48.0206 30.6562C47.5831 30.875 47.3488 31.0625 47.3175 31.2188C47.3175 31.375 47.2238 31.4844 47.0363 31.5469C47.005 31.6719 46.9894 31.7969 46.9894 31.9219C46.9894 32.0156 46.9581 32.125 46.8956 32.25C46.6144 32.375 46.4113 32.5625 46.2863 32.8125C46.1613 33.0625 46.0206 33.3125 45.8644 33.5625C45.7394 33.5625 45.6456 33.5938 45.5831 33.6562C45.5206 33.7188 45.4269 33.7344 45.3019 33.7031C45.3331 33.9844 45.255 34.1562 45.0675 34.2188C44.9113 34.2812 44.7238 34.3906 44.505 34.5469C44.4425 34.7031 44.3331 34.7812 44.1769 34.7812C44.0206 34.75 43.9738 34.8438 44.0363 35.0625C43.9113 35.0938 43.8019 35.1094 43.7081 35.1094C43.6456 35.1094 43.5675 35.0625 43.4738 34.9688C43.2863 35.0938 43.1613 35.2969 43.0988 35.5781C42.7863 35.6406 42.5206 35.7656 42.3019 35.9531C42.0831 36.1094 41.7863 36.2188 41.4113 36.2812C41.3488 36.3125 41.2863 36.375 41.2238 36.4688C41.1613 36.5938 41.0519 36.6719 40.8956 36.7031C40.4581 36.7969 40.0206 36.8281 39.5831 36.7969C39.1456 36.7656 38.7081 36.75 38.2706 36.75C38.0206 36.75 37.7706 36.75 37.5206 36.75C37.2706 36.75 37.0206 36.7656 36.7706 36.7969C36.6456 36.8281 36.5363 36.8438 36.4425 36.8438C36.3488 36.875 36.255 36.8906 36.1613 36.8906C35.8488 36.8906 35.5831 36.8125 35.3644 36.6562C35.1456 36.5312 34.88 36.5781 34.5675 36.7969C34.3488 36.8281 34.2238 36.7969 34.1925 36.7031C34.1613 36.6406 34.1144 36.5781 34.0519 36.5156C33.8956 36.5469 33.7863 36.5469 33.7238 36.5156C33.6613 36.5156 33.5675 36.4844 33.4425 36.4219C33.255 36.3594 33.0675 36.3438 32.88 36.375C32.7238 36.4375 32.505 36.4219 32.2238 36.3281C32.0988 36.3281 31.9113 36.3594 31.6613 36.4219C31.2863 36.2344 31.0831 36.0938 31.0519 36C31.0206 35.9062 30.9269 35.8125 30.7706 35.7188C30.3644 35.7812 30.0831 35.7188 29.9269 35.5312C29.7706 35.3438 29.5206 35.2188 29.1769 35.1562C29.1144 34.8125 28.9581 34.5625 28.7081 34.4062C28.4581 34.25 28.2394 34.0469 28.0519 33.7969C28.0831 33.4844 28.0675 33.25 28.005 33.0938C27.9425 32.9062 27.8956 32.7344 27.8644 32.5781C27.8331 32.3594 27.8331 32.1562 27.8644 31.9688C27.8644 31.7812 27.8331 31.5781 27.7706 31.3594C27.8019 31.2344 27.9113 31.0156 28.0988 30.7031C28.255 30.3906 28.3644 30.1875 28.4269 30.0938C28.6769 30.1562 28.8644 30.1562 28.9894 30.0938C29.0831 30.0312 29.2238 29.9219 29.4113 29.7656C29.755 29.9844 30.1144 30.1406 30.4894 30.2344C30.8956 30.3281 31.2706 30.4688 31.6144 30.6562C31.6144 30.875 31.6456 31.0625 31.7081 31.2188C31.8019 31.375 31.8488 31.5625 31.8488 31.7812C32.005 31.875 32.1144 32 32.1769 32.1562C32.2706 32.2812 32.3956 32.375 32.5519 32.4375C32.6769 32.5 32.8175 32.5312 32.9738 32.5312C33.13 32.5 33.2706 32.5 33.3956 32.5312C33.7706 32.75 34.255 32.9062 34.8488 33C35.4425 33.0938 35.88 33.1406 36.1613 33.1406C36.2863 33.1406 36.38 33.1094 36.4425 33.0469C36.5363 32.9531 36.6613 32.9375 36.8175 33C36.9738 32.8125 37.2394 32.6875 37.6144 32.625C37.7081 32.7188 37.8331 32.8125 37.9894 32.9062C38.1769 33 38.38 33.0625 38.5988 33.0938C38.8175 33.125 39.0206 33.125 39.2081 33.0938C39.3956 33.0625 39.5363 33 39.63 32.9062C39.9738 32.625 40.1925 32.4375 40.2863 32.3438C40.38 32.2188 40.505 32.2812 40.6613 32.5312C40.7238 32.4375 40.8019 32.3906 40.8956 32.3906C41.0206 32.3594 41.13 32.3281 41.2238 32.2969C41.4113 32.2344 41.5675 32.1562 41.6925 32.0625C41.8488 31.9375 42.0206 31.8594 42.2081 31.8281C42.3644 31.4844 42.5831 31.2344 42.8644 31.0781C42.8956 30.8281 42.9425 30.6562 43.005 30.5625C43.0988 30.4375 43.1144 30.2344 43.0519 29.9531C43.2394 29.8906 43.3644 29.8125 43.4269 29.7188C43.4894 29.625 43.5988 29.5312 43.755 29.4375V28.7812C44.0988 28.4062 44.255 28.0938 44.2238 27.8438C44.1925 27.5938 44.2706 27.3906 44.4581 27.2344C44.4269 27.0156 44.4425 26.8125 44.505 26.625C44.5675 26.4375 44.5988 26.2344 44.5988 26.0156C44.5988 25.8594 44.5675 25.7188 44.505 25.5938C44.4738 25.4688 44.4581 25.3281 44.4581 25.1719C44.4581 25.0469 44.5206 24.8906 44.6456 24.7031C44.5206 24.4844 44.4425 24.1875 44.4113 23.8125C44.38 23.4375 44.4425 23.1406 44.5988 22.9219C44.5988 22.8281 44.5675 22.75 44.505 22.6875C44.4738 22.5938 44.4581 22.4844 44.4581 22.3594C44.4581 22.2031 44.505 22.0625 44.5988 21.9375C44.7238 21.7812 44.7863 21.6562 44.7863 21.5625C44.7863 21.25 44.7706 20.875 44.7394 20.4375C44.7394 19.9688 44.6456 19.6094 44.4581 19.3594C44.5206 18.6094 44.4894 17.875 44.3644 17.1562C44.2706 16.4062 44.2238 15.6562 44.2238 14.9062C44.2238 14.7812 44.2238 14.6719 44.2238 14.5781C44.255 14.4531 44.2706 14.3281 44.2706 14.2031C44.2706 14.1094 44.2238 14.0156 44.13 13.9219C44.0675 13.8281 44.0206 13.7188 43.9894 13.5938C44.0206 13.4688 44.0363 13.3594 44.0363 13.2656C44.0675 13.1719 44.0831 13.0625 44.0831 12.9375C44.0831 12.6875 44.0519 12.4531 43.9894 12.2344C43.9581 11.9844 43.9269 11.7344 43.8956 11.4844C43.8331 11.0156 43.8019 10.5469 43.8019 10.0781C43.8019 9.60938 43.755 9.14062 43.6613 8.67188C43.6613 8.57812 43.6144 8.51562 43.5206 8.48438C43.4269 8.42188 43.3488 8.35938 43.2863 8.29688C43.2863 8.14062 43.3175 8.01562 43.38 7.92188C43.4425 7.79688 43.4738 7.65625 43.4738 7.5C43.4738 7.4375 43.4425 7.35938 43.38 7.26562C43.3488 7.17188 43.3019 7.09375 43.2394 7.03125C43.4269 6.75 43.4581 6.46875 43.3331 6.1875C43.2081 5.90625 43.1769 5.625 43.2394 5.34375C43.1144 5.21875 42.9425 5.09375 42.7238 4.96875C42.505 4.8125 42.3019 4.73438 42.1144 4.73438C41.9581 4.73438 41.8488 4.79688 41.7863 4.92188C41.7238 5.01562 41.6613 5.09375 41.5988 5.15625C41.3175 4.96875 41.0519 4.96875 40.8019 5.15625C40.5831 5.3125 40.3331 5.34375 40.0519 5.25C39.7706 5.34375 39.5675 5.4375 39.4425 5.53125C39.3488 5.59375 39.2238 5.54688 39.0675 5.39062C38.2238 5.48438 37.505 5.53125 36.9113 5.53125C36.3175 5.5 35.7081 5.46875 35.0831 5.4375C34.9581 5.28125 34.8175 5.15625 34.6613 5.0625C34.505 4.96875 34.3956 4.82812 34.3331 4.64062Z" fill="#F2994A"/>
</svg>
