<svg width="20" height="20" viewBox="0 0 20 20" fill="none" xmlns="http://www.w3.org/2000/svg">
<path d="M10.8334 9.99967C10.8334 9.53944 10.4603 9.16634 10 9.16634C9.53978 9.16634 9.16669 9.53944 9.16669 9.99967C9.16669 10.4599 9.53978 10.833 10 10.833C10.4603 10.833 10.8334 10.4599 10.8334 9.99967Z" stroke="#575757" stroke-width="2" stroke-linecap="round" stroke-linejoin="round"/>
<path d="M4.99998 9.99967C4.99998 9.53944 4.62688 9.16634 4.16665 9.16634C3.70641 9.16634 3.33331 9.53944 3.33331 9.99967C3.33331 10.4599 3.70641 10.833 4.16665 10.833C4.62688 10.833 4.99998 10.4599 4.99998 9.99967Z" stroke="#575757" stroke-width="2" stroke-linecap="round" stroke-linejoin="round"/>
<path d="M16.6667 9.99967C16.6667 9.53944 16.2936 9.16634 15.8333 9.16634C15.3731 9.16634 15 9.53944 15 9.99967C15 10.4599 15.3731 10.833 15.8333 10.833C16.2936 10.833 16.6667 10.4599 16.6667 9.99967Z" stroke="#575757" stroke-width="2" stroke-linecap="round" stroke-linejoin="round"/>
</svg>
